<?xml version="1.0" encoding="utf-8"?>
<!-- Generator: Adobe Illustrator 22.0.1, SVG Export Plug-In . SVG Version: 6.00 Build 0)  -->
<svg version="1.0" id="Livello_1" xmlns="http://www.w3.org/2000/svg" xmlns:xlink="http://www.w3.org/1999/xlink" x="0px" y="0px"
	 width="30px" height="30px" viewBox="0 0 30 30" enable-background="new 0 0 30 30" xml:space="preserve">
	 <style type="text/css">
	.st0{fill:#979797;}
</style>
<rect fill="#979797" width="30" height="30" opacity="0"/>
<path fill="#979797" id="bgColor00" class="st0" d="M15,0C6.7,0,0,6.7,0,15c0,8.3,6.7,15,15,15c8.3,0,15-6.7,15-15C30,6.7,23.3,0,15,0z M26.3,23
	c-0.9,0.3-2.4,0.7-4.6,0.9c0.8-1.9,1.4-4.2,1.6-6.6c2.3-0.3,4.4-0.7,5.5-1.3C28.6,18.6,27.7,21,26.3,23z M1.2,16
	c1.1,0.6,3.2,1,5.5,1.3C7,19.7,7.5,22,8.4,23.9c-2.2-0.2-3.8-0.6-4.6-0.9C2.3,20.9,1.4,18.6,1.2,16z M7.3,17.3
	c1.5,0.2,3.2,0.3,4.8,0.3c0.1,2.3,0.3,4.6,0.6,6.5c-1.4,0-2.6-0.1-3.6-0.2C8.2,22.1,7.6,19.8,7.3,17.3z M7.2,15
	c0-1.9,0.2-3.6,0.6-5.3c1.4,0.2,2.9,0.3,4.4,0.3C12.1,11.7,12,13.3,12,15c0,0.7,0,1.4,0,2.1c-1.8-0.1-3.4-0.2-4.8-0.3
	C7.2,16.2,7.2,15.6,7.2,15z M22.8,15c0,0.6,0,1.2-0.1,1.7c-1.4,0.2-3,0.3-4.8,0.3c0-0.7,0-1.4,0-2.1c0-1.7-0.1-3.3-0.2-4.9
	c1.5-0.1,3-0.2,4.4-0.3C22.6,11.4,22.8,13.1,22.8,15z M15,28.8c-0.1,0-0.3,0-0.4,0c-0.4-0.5-0.9-1.9-1.2-4c0.6,0,1.1,0,1.7,0
	c0.5,0,1.1,0,1.6,0c-0.4,2.1-0.8,3.5-1.2,4C15.3,28.8,15.1,28.8,15,28.8z M15,24.2c-0.6,0-1.2,0-1.8,0c-0.3-1.8-0.5-3.9-0.6-6.5
	c0.8,0,1.6,0,2.4,0c0.7,0,1.5,0,2.3,0c-0.1,2.6-0.3,4.8-0.6,6.5C16.2,24.2,15.6,24.2,15,24.2z M15,17.1c-0.8,0-1.6,0-2.4,0
	c0-0.7,0-1.4,0-2.1c0-1.8,0.1-3.4,0.2-4.9c0.8,0,1.5,0,2.2,0c0.7,0,1.4,0,2.2,0c0.1,1.5,0.2,3.1,0.2,4.9c0,0.7,0,1.4,0,2.1
	C16.6,17.1,15.8,17.1,15,17.1z M15,1.2c0.1,0,0.3,0,0.4,0c0.7,0.9,1.4,3.8,1.8,8.3c-0.7,0-1.4,0-2.1,0c-0.8,0-1.5,0-2.2,0
	c0.3-4.5,1.1-7.5,1.8-8.3C14.7,1.2,14.9,1.2,15,1.2z M17.8,9.5c-0.3-3.7-0.8-6.8-1.7-8.3c0.2,0,0.4,0,0.7,0.1c2.4,1,4.3,3.9,5.3,7.9
	C20.8,9.3,19.4,9.4,17.8,9.5z M13.9,1.2c-0.8,1.5-1.4,4.6-1.7,8.3c-1.7-0.1-3.1-0.2-4.3-0.3c1-3.9,3-6.9,5.3-7.9
	C13.5,1.3,13.7,1.2,13.9,1.2z M12.7,24.8c0.3,1.8,0.7,3.2,1.2,4c-0.2,0-0.4,0-0.7-0.1c-1.5-0.6-2.9-2.1-4-4.1
	C10.4,24.7,11.6,24.7,12.7,24.8z M16.1,28.8c0.5-0.8,0.9-2.3,1.2-4c1.1,0,2.3-0.1,3.4-0.2c-1,2-2.4,3.5-3.9,4.1
	C16.5,28.7,16.3,28.8,16.1,28.8z M17.3,24.2c0.3-1.9,0.5-4.2,0.6-6.5c1.6-0.1,3.2-0.2,4.8-0.3c-0.2,2.5-0.8,4.8-1.7,6.6
	C19.9,24.1,18.7,24.1,17.3,24.2z M28.8,15.3c-0.8,0.5-2.7,1-5.5,1.3c0-0.6,0.1-1.1,0.1-1.7c0-1.9-0.2-3.7-0.6-5.3
	c2-0.3,3.6-0.7,4.4-1.2c1,1.9,1.6,4.2,1.6,6.5C28.8,15.1,28.8,15.2,28.8,15.3z M26.9,8c-0.5,0.4-1.9,0.8-4.3,1.1
	c-0.8-3.3-2.4-6-4.3-7.5C22,2.5,25.1,4.9,26.9,8z M11.6,1.6C9.7,3.1,8.2,5.8,7.3,9.1C5,8.8,3.6,8.3,3.1,8C5,4.9,8,2.5,11.6,1.6z
	 M2.8,8.4C3.6,9,5.2,9.4,7.2,9.7c-0.4,1.7-0.6,3.5-0.6,5.3c0,0.6,0,1.1,0.1,1.7c-2.9-0.4-4.8-0.9-5.5-1.4c0-0.1,0-0.2,0-0.3
	C1.2,12.6,1.8,10.4,2.8,8.4z M4.3,23.8c1.1,0.3,2.7,0.6,4.3,0.7c0.8,1.7,1.8,3,3,3.9C8.7,27.6,6.2,26,4.3,23.8z M18.4,28.4
	c1.1-0.9,2.2-2.2,3-3.9c1.6-0.2,3.2-0.4,4.3-0.7C23.8,26,21.3,27.6,18.4,28.4z"/>
</svg>
