<?xml version="1.0" encoding="utf-8"?>
<!-- Generator: Adobe Illustrator 21.1.0, SVG Export Plug-In . SVG Version: 6.00 Build 0)  -->
<svg version="1.0" id="Livello_1" xmlns="http://www.w3.org/2000/svg" xmlns:xlink="http://www.w3.org/1999/xlink" x="0px" y="0px"
	 viewBox="0 0 29 29" style="enable-background:new 0 0 29 29;" xml:space="preserve">
<style type="text/css">
	.st0{fill:#979797;}
</style>
<g id="_x3C_title_x3E_">
</g>
<g id="_x3C_desc_x3E_">
</g>
<g>
	<path class="st0" d="M6.1,13.4c0.4,0.4,1,0.4,1.4,0l5.7-5.7c0.4-0.4,0.4-1,0-1.4s-1-0.4-1.4,0l-4,3.9V1c0-0.5-0.5-1-1-1
		c-0.6,0-1,0.5-1,1v9.3l-4-3.9C1.4,6,0.8,6,0.4,6.4s-0.4,1,0,1.4L6.1,13.4z"/>
	<g>
		<rect x="4" y="19" class="st0" width="11" height="6"/>
		<path class="st0" d="M28,15H1c-0.5,0-1,0.5-1,1v12c0,0.6,0.4,1,1,1h27c0.5,0,1-0.5,1-1V16C29,15.5,28.6,15,28,15z M27,27H2V17h25
			V27z"/>
	</g>
</g>
</svg>
