<?xml version="1.0" encoding="utf-8"?>
<!-- Generator: Adobe Illustrator 21.0.2, SVG Export Plug-In . SVG Version: 6.00 Build 0)  -->
<svg version="1.0" xmlns="http://www.w3.org/2000/svg" xmlns:xlink="http://www.w3.org/1999/xlink" x="0px" y="0px"
	 viewBox="0 0 289 51" style="enable-background:new 0 0 289 51;" xml:space="preserve">
<style type="text/css">
	.st0{display:none;}
	.st1{display:inline;}
	.st2{fill:#D50819;}
	.st3{fill:#FFFFFF;}
	.st4{fill:#1D1D1B;}
	.st5{fill:#D6041C;}
</style>
<g id="Livello_1" class="st0">
	<g id="XMLID_26_" class="st1">
		<ellipse id="XMLID_41_" class="st2" cx="49.9" cy="25.5" rx="50" ry="25"/>
		<g id="XMLID_27_">
			<g id="XMLID_28_">
				<g id="XMLID_29_">
					<g id="XMLID_30_">
						<path id="XMLID_40_" class="st3" d="M30.8,16.3l0,1.3c-0.2,0.1-0.2-0.2-0.4-0.3c-1.3-1.4-3.5-1.7-5.3-1.2
							c-1.7,0.6-3,2.2-3.3,4c-0.4,2.3-0.2,4.9,1.1,6.6l0,0c0.9,1.4,2.6,2.5,4.4,2.5c1.3,0,2.3-0.6,3.3-1.4h0.2L30.7,29
							c-1.2,0.7-2.2,1.2-3.6,1.3c-1.2,0.2-2.6-0.1-3.5-0.5c-2.7-0.9-4.5-3.3-4.9-6.1c-0.3-2.6,0.5-5.4,2.6-7.1
							c2.1-1.7,5.2-2.3,7.7-1.3C29.7,15.5,30.2,15.9,30.8,16.3z"/>
						<path id="XMLID_39_" class="st3" d="M55.9,17.2c0.5,1.3,0.8,2.9,0,4c-0.8,1.1-2,1.5-3.1,1.9c1.2,2.3,2.6,4.7,3.8,6.9
							c-0.9,0-2.1,0-3.2,0c-1.4-2.5-2.8-5-4.1-7.4c0.8-0.2,1.7-0.2,2.5-0.5c1.1-0.2,1.8-1.3,1.9-2.3c0.1-1.4-0.2-2.8-1.6-3.5
							c-1-0.5-3.1-0.2-3.4-0.3c0,0.6,0,4.1,0,4.5v3v6.6h-2.8V15h2.8C49.4,14.9,54.6,14.6,55.9,17.2z"/>
						<path id="XMLID_38_" class="st3" d="M68.6,15.1c0,0,0,1.1,0,1.2h-6c0,0.3,0,2.7,0,4.4v1h5.6c0,0.1,0,0.7,0,1.2
							c-1.9,0-5.3,0-5.6,0c0,0,0,0.6,0,0.9v1v4c1.9,0,5,0,6,0c0,0.4,0,1.1,0,1.3h-9.1l0-1l0-14h2.6H68.6z"/>
						<path id="XMLID_37_" class="st3" d="M75.2,15.1c0,0.8,0,1.9,0,2.6v11c1.3,0,5.9,0,5.9,0v1.3h-8.9l0-15l1.1,0L75.2,15.1z"/>
						<path id="XMLID_34_" class="st3" d="M37.5,14.5l-6.4,15l-0.3,0.6h1.4c0.6-1.1,1.3-2.7,1.9-3.9h5c0.5,1.1,1.2,2.7,1.6,3.9
							c0.6,0,2.2,0,3,0C41.6,24.9,39.5,19.7,37.5,14.5z M34.6,24.8c0.5-1.5,1.4-3.2,1.9-4.7c0.7,1.4,1.3,3.2,2,4.7H34.6z"/>
						<path id="XMLID_33_" class="st3" d="M18.8,36.5l0-1.8h41.6c0,0.1,0,1.8,0,1.8H18.8"/>
						<path id="XMLID_32_" class="st3" d="M66.5,34.7v1.8c0,0-4.9,0-4.5,0l0-1.8C61.5,34.7,65.2,34.7,66.5,34.7z"/>
						<polygon id="XMLID_31_" class="st3" points="81.1,34.7 81.1,36.5 68,36.5 68,34.7 68,34.7 						"/>
					</g>
				</g>
			</g>
		</g>
	</g>
	<g class="st1">
		<path class="st4" d="M255.8,38.1c-4.9,0-8.9-4-8.9-8.9l0-22.2h3.9l0,5.8h7.8v3.9h-7.7l0,12.5c0,2.7,2.2,5,5,5h7.9v4H255.8z"/>
		<path class="st4" d="M221.6,38.1v-1.9c-1.6,1.2-3.6,1.8-5.7,1.8h-6.2c-5.3,0-9.6-4.3-9.6-9.6V12.7l3.9,0v15.8
			c0,3.1,2.5,5.6,5.6,5.6h6.2c3.1,0,5.7-2.5,5.7-5.6V12.6h4v25.5H221.6z"/>
		<path class="st4" d="M173.7,38.1v-4h11.6c2.7,0,4.9-2.3,4.9-5c0-2.8-2.2-5-4.9-5h-5v0.1l-1.3-0.1h-0.1l-0.1,0
			c-2.8-0.3-5.1-2.7-5.1-5.7c0-3.1,2.5-5.7,5.6-5.7h9.9v4h-9.9c-0.9,0-1.7,0.8-1.7,1.7c0,0.9,0.6,1.6,1.4,1.7h6.3c4.8,0,8.8,4,8.8,9
			c0,5-4,9-8.8,9H173.7z"/>
		<path class="st4" d="M277.4,38.1c-5.3,0-9.6-4.3-9.6-9.6v-5.8c0-5.3,4.3-9.6,9.6-9.6h6.3c5.3,0,9.6,4.3,9.6,9.6V27h-16.9V23h13
			v-0.3c0-3.1-2.5-5.6-5.6-5.6h-6.3c-3.1,0-5.6,2.5-5.6,5.6v5.8c0,3.1,2.5,5.6,5.6,5.6h15.8l0,4H277.4z"/>
		<path class="st4" d="M239.3,37.9c-4.3-0.8-7.4-4.5-7.4-8.8V12.5h4V29c0,2.3,1.6,4.4,3.9,4.9l0.9,0.2v4L239.3,37.9z M231.9,10.7v-4
			h4v4H231.9z"/>
		<g>
			<path class="st5" d="M159.5,33.3H144c-2.7,0-5-2.2-5-5v-5.9c0-2.8,2.2-5,5-5h5.6c2.8,0,5,2.2,5,5h4.8c0-5.4-4.4-9.8-9.8-9.8H144
				c-5.4,0-9.8,4.4-9.8,9.8v5.9c0,5.4,4.4,9.8,9.8,9.8h15.5V33.3z"/>
			<circle class="st5" cx="164.7" cy="35.7" r="3.1"/>
		</g>
	</g>
	<g id="Livello_2" class="st1">
	</g>
</g>
<g id="Livello_3">
	<g>
		<path class="st4" d="M251.7,38.5c-4.8,0-8.7-3.9-8.7-8.7l0-21.5h3.8v21.5c0,2.7,2.2,4.8,4.8,4.8h7.6v3.8H251.7z"/>
		<path class="st4" d="M279.7,38.7h-5.6c-5.1,0-9.3-4.2-9.3-9.3v-6.1c0-5.1,4.2-9.3,9.3-9.3h6.7v3.8h-6.7c-3,0-5.5,2.5-5.5,5.5v6.1
			c0,3,2.5,5.5,5.5,5.5h5.6c3,0,5.5-2.5,5.5-5.5v-21l3.8,0v21C289,34.5,284.8,38.7,279.7,38.7L279.7,38.7z"/>
		<path class="st4" d="M222.3,38.4c-5.1,0-9.3-4.2-9.3-9.3v-5.6c0-5.1,4.2-9.3,9.3-9.3h6.1c5.1,0,9.3,4.2,9.3,9.3v4.1h-16.4v-3.8
			h12.6v-0.3c0-3-2.4-5.5-5.5-5.5h-6.1c-3,0-5.5,2.4-5.5,5.5v5.6c0,3,2.4,5.5,5.5,5.5h15.3l0,3.8H222.3z"/>
		<path class="st4" d="M204.4,37.9c-4.1-0.8-7.1-4.3-7.1-8.5V13.6h3.8v15.8c0,2.2,1.6,4.2,3.7,4.7l0.9,0.2v3.8L204.4,37.9z
			 M197.3,11.8V8h3.8v3.8H197.3z"/>
		<path class="st4" d="M172,38.2l0-21.4c0-4.8,3.9-8.6,8.6-8.6h7.6V12h-7.6c-2.7,0-4.8,2.2-4.8,4.8l0,6.7h7.4v3.8h-7.5l0,10.9H172z"
			/>
		<g>
			<path class="st5" d="M159.4,33.3h-15.5c-2.8,0-5-2.2-5-5v-5.9c0-2.8,2.3-5,5-5h5.7c2.8,0,5,2.3,5,5h4.8c0-5.4-4.4-9.8-9.9-9.8
				h-5.7c-5.4,0-9.8,4.4-9.8,9.8v5.9c0,5.4,4.4,9.9,9.8,9.9h15.5V33.3z"/>
			<path class="st5" d="M167.7,35.7c0,1.7-1.4,3.1-3.1,3.1c-1.7,0-3.1-1.4-3.1-3.1c0-1.7,1.4-3.1,3.1-3.1
				C166.3,32.6,167.7,34,167.7,35.7z"/>
		</g>
	</g>
	<g id="XMLID_1_">
		<ellipse id="XMLID_16_" class="st2" cx="49.9" cy="25.5" rx="50" ry="25"/>
		<g id="XMLID_2_">
			<g id="XMLID_3_">
				<g id="XMLID_4_">
					<g id="XMLID_5_">
						<path id="XMLID_15_" class="st3" d="M30.8,16.3l0,1.3c-0.2,0.1-0.2-0.2-0.4-0.3c-1.3-1.4-3.5-1.7-5.3-1.2
							c-1.7,0.6-3,2.2-3.3,4c-0.4,2.3-0.2,4.9,1.1,6.6l0,0c0.9,1.4,2.6,2.5,4.4,2.5c1.3,0,2.3-0.6,3.3-1.4h0.2L30.7,29
							c-1.2,0.7-2.2,1.2-3.6,1.3c-1.2,0.2-2.6-0.1-3.5-0.5c-2.7-0.9-4.5-3.3-4.9-6.1c-0.3-2.6,0.5-5.4,2.6-7.1
							c2.1-1.7,5.2-2.3,7.7-1.3C29.7,15.5,30.2,15.9,30.8,16.3z"/>
						<path id="XMLID_14_" class="st3" d="M55.9,17.2c0.5,1.3,0.8,2.9,0,4c-0.8,1.1-2,1.5-3.1,1.9c1.2,2.3,2.6,4.7,3.8,6.9
							c-0.9,0-2.1,0-3.2,0c-1.4-2.5-2.8-5-4.1-7.4c0.8-0.2,1.7-0.2,2.5-0.5c1.1-0.2,1.8-1.3,1.9-2.3c0.1-1.4-0.2-2.8-1.6-3.5
							c-1-0.5-3.1-0.2-3.4-0.3c0,0.6,0,4.1,0,4.5v3v6.6h-2.8V15h2.8C49.4,14.9,54.6,14.6,55.9,17.2z"/>
						<path id="XMLID_13_" class="st3" d="M68.6,15.1c0,0,0,1.1,0,1.2h-6c0,0.3,0,2.7,0,4.4v1h5.6c0,0.1,0,0.7,0,1.2
							c-1.9,0-5.3,0-5.6,0c0,0,0,0.6,0,0.9v1v4c1.9,0,5,0,6,0c0,0.4,0,1.1,0,1.3h-9.1l0-1l0-14h2.6H68.6z"/>
						<path id="XMLID_12_" class="st3" d="M75.2,15.1c0,0.8,0,1.9,0,2.6v11c1.3,0,5.9,0,5.9,0v1.3h-8.9l0-15l1.1,0L75.2,15.1z"/>
						<path id="XMLID_9_" class="st3" d="M37.5,14.5l-6.4,15l-0.3,0.6h1.4c0.6-1.1,1.3-2.7,1.9-3.9h5c0.5,1.1,1.2,2.7,1.6,3.9
							c0.6,0,2.2,0,3,0C41.6,24.9,39.5,19.7,37.5,14.5z M34.6,24.8c0.5-1.5,1.4-3.2,1.9-4.7c0.7,1.4,1.3,3.2,2,4.7H34.6z"/>
						<path id="XMLID_8_" class="st3" d="M18.8,36.5l0-1.8h41.6c0,0.1,0,1.8,0,1.8H18.8"/>
						<path id="XMLID_7_" class="st3" d="M66.5,34.7v1.8c0,0-4.9,0-4.5,0l0-1.8C61.5,34.7,65.2,34.7,66.5,34.7z"/>
						<polygon id="XMLID_6_" class="st3" points="81.1,34.7 81.1,36.5 68,36.5 68,34.7 68,34.7 						"/>
					</g>
				</g>
			</g>
		</g>
	</g>
</g>
</svg>
