<?xml version="1.0" encoding="utf-8"?>
<!-- Generator: Adobe Illustrator 21.0.2, SVG Export Plug-In . SVG Version: 6.00 Build 0)  -->
<svg version="1.0" id="Livello_1" xmlns="http://www.w3.org/2000/svg" xmlns:xlink="http://www.w3.org/1999/xlink" x="0px" y="0px"
	 viewBox="0 0 155.4 31.5" style="enable-background:new 0 0 155.4 31.5;" xml:space="preserve">
<style type="text/css">
	.st0{display:none;}
	.st1{display:inline;}
	.st2{fill:#D50819;}
	.st3{fill:#FFFFFF;}
	.st4{fill:#1D1D1B;}
	.st5{fill:#D6041C;}
</style>
<g id="Livello_1_1_" class="st0">
	<g id="XMLID_26_" class="st1">
		<ellipse id="XMLID_41_" class="st2" cx="-83.7" cy="18.3" rx="50" ry="25"/>
		<g id="XMLID_27_">
			<g id="XMLID_28_">
				<g id="XMLID_29_">
					<g id="XMLID_30_">
						<path id="XMLID_40_" class="st3" d="M-102.8,9.1v1.3c-0.2,0.1-0.2-0.2-0.4-0.3c-1.3-1.4-3.5-1.7-5.3-1.2c-1.7,0.6-3,2.2-3.3,4
							c-0.4,2.3-0.2,4.9,1.1,6.6l0,0c0.9,1.4,2.6,2.5,4.4,2.5c1.3,0,2.3-0.6,3.3-1.4h0.2l-0.1,1.2c-1.2,0.7-2.2,1.2-3.6,1.3
							c-1.2,0.2-2.6-0.1-3.5-0.5c-2.7-0.9-4.5-3.3-4.9-6.1c-0.3-2.6,0.5-5.4,2.6-7.1s5.2-2.3,7.7-1.3
							C-103.9,8.3-103.4,8.7-102.8,9.1z"/>
						<path id="XMLID_39_" class="st3" d="M-77.7,10c0.5,1.3,0.8,2.9,0,4c-0.8,1.1-2,1.5-3.1,1.9c1.2,2.3,2.6,4.7,3.8,6.9
							c-0.9,0-2.1,0-3.2,0c-1.4-2.5-2.8-5-4.1-7.4c0.8-0.2,1.7-0.2,2.5-0.5c1.1-0.2,1.8-1.3,1.9-2.3c0.1-1.4-0.2-2.8-1.6-3.5
							c-1-0.5-3.1-0.2-3.4-0.3c0,0.6,0,4.1,0,4.5v3v6.6h-2.8V7.8h2.8C-84.2,7.7-79,7.4-77.7,10z"/>
						<path id="XMLID_38_" class="st3" d="M-65,7.9c0,0,0,1.1,0,1.2h-6c0,0.3,0,2.7,0,4.4v1h5.6c0,0.1,0,0.7,0,1.2
							c-1.9,0-5.3,0-5.6,0c0,0,0,0.6,0,0.9v1v4c1.9,0,5,0,6,0c0,0.4,0,1.1,0,1.3h-9.1v-1v-14h2.6H-65z"/>
						<path id="XMLID_37_" class="st3" d="M-58.4,7.9c0,0.8,0,1.9,0,2.6v11c1.3,0,5.9,0,5.9,0v1.3h-8.9v-15h1.1L-58.4,7.9z"/>
						<path id="XMLID_34_" class="st3" d="M-96.1,7.3l-6.4,15l-0.3,0.6h1.4c0.6-1.1,1.3-2.7,1.9-3.9h5c0.5,1.1,1.2,2.7,1.6,3.9
							c0.6,0,2.2,0,3,0C-92,17.7-94.1,12.5-96.1,7.3z M-99,17.6c0.5-1.5,1.4-3.2,1.9-4.7c0.7,1.4,1.3,3.2,2,4.7H-99z"/>
						<path id="XMLID_33_" class="st3" d="M-114.8,29.3v-1.8h41.6c0,0.1,0,1.8,0,1.8H-114.8"/>
						<path id="XMLID_32_" class="st3" d="M-67.1,27.5v1.8c0,0-4.9,0-4.5,0v-1.8C-72.1,27.5-68.4,27.5-67.1,27.5z"/>
						<polygon id="XMLID_31_" class="st3" points="-52.5,27.5 -52.5,29.3 -65.6,29.3 -65.6,27.5 -65.6,27.5 						"/>
					</g>
				</g>
			</g>
		</g>
	</g>
	<g class="st1">
		<path class="st4" d="M122.2,30.9c-4.9,0-8.9-4-8.9-8.9V-0.2h3.9v5.8h7.8v3.9h-7.7V22c0,2.7,2.2,5,5,5h7.9v4L122.2,30.9L122.2,30.9
			z"/>
		<path class="st4" d="M88,30.9V29c-1.6,1.2-3.6,1.8-5.7,1.8h-6.2c-5.3,0-9.6-4.3-9.6-9.6V5.5h3.9v15.8c0,3.1,2.5,5.6,5.6,5.6h6.2
			c3.1,0,5.7-2.5,5.7-5.6V5.4h4v25.5H88z"/>
		<path class="st4" d="M40.1,30.9v-4h11.6c2.7,0,4.9-2.3,4.9-5c0-2.8-2.2-5-4.9-5h-5V17l-1.3-0.1h-0.1h-0.1
			c-2.8-0.3-5.1-2.7-5.1-5.7c0-3.1,2.5-5.7,5.6-5.7h9.9v4h-9.9c-0.9,0-1.7,0.8-1.7,1.7c0,0.9,0.6,1.6,1.4,1.7h6.3c4.8,0,8.8,4,8.8,9
			s-4,9-8.8,9H40.1z"/>
		<path class="st4" d="M143.8,30.9c-5.3,0-9.6-4.3-9.6-9.6v-5.8c0-5.3,4.3-9.6,9.6-9.6h6.3c5.3,0,9.6,4.3,9.6,9.6v4.3h-16.9v-4h13
			v-0.3c0-3.1-2.5-5.6-5.6-5.6h-6.3c-3.1,0-5.6,2.5-5.6,5.6v5.8c0,3.1,2.5,5.6,5.6,5.6h15.8v4H143.8z"/>
		<path class="st4" d="M105.7,30.7c-4.3-0.8-7.4-4.5-7.4-8.8V5.3h4v16.5c0,2.3,1.6,4.4,3.9,4.9l0.9,0.2v4L105.7,30.7z M98.3,3.5v-4
			h4v4H98.3z"/>
		<g>
			<path class="st5" d="M25.9,26.1H10.4c-2.7,0-5-2.2-5-5v-5.9c0-2.8,2.2-5,5-5H16c2.8,0,5,2.2,5,5h4.8c0-5.4-4.4-9.8-9.8-9.8h-5.6
				c-5.4,0-9.8,4.4-9.8,9.8v5.9c0,5.4,4.4,9.8,9.8,9.8h15.5V26.1z"/>
			<circle class="st5" cx="31.1" cy="28.5" r="3.1"/>
		</g>
	</g>
	<g id="Livello_2" class="st1">
	</g>
</g>
<g id="Livello_3">
	<g>
		<path class="st3" d="M118.1,31.3c-4.8,0-8.7-3.9-8.7-8.7V1.1h3.8v21.5c0,2.7,2.2,4.8,4.8,4.8h7.6v3.8h-7.5V31.3z"/>
		<path class="st3" d="M146.1,31.5h-5.6c-5.1,0-9.3-4.2-9.3-9.3v-6.1c0-5.1,4.2-9.3,9.3-9.3h6.7v3.8h-6.7c-3,0-5.5,2.5-5.5,5.5v6.1
			c0,3,2.5,5.5,5.5,5.5h5.6c3,0,5.5-2.5,5.5-5.5v-21h3.8v21C155.4,27.3,151.2,31.5,146.1,31.5L146.1,31.5z"/>
		<path class="st3" d="M88.7,31.2c-5.1,0-9.3-4.2-9.3-9.3v-5.6c0-5.1,4.2-9.3,9.3-9.3h6.1c5.1,0,9.3,4.2,9.3,9.3v4.1H87.7v-3.8h12.6
			v-0.3c0-3-2.4-5.5-5.5-5.5h-6.1c-3,0-5.5,2.4-5.5,5.5v5.6c0,3,2.4,5.5,5.5,5.5H104v3.8C104,31.2,88.7,31.2,88.7,31.2z"/>
		<path class="st3" d="M70.8,30.7c-4.1-0.8-7.1-4.3-7.1-8.5V6.4h3.8v15.8c0,2.2,1.6,4.2,3.7,4.7l0.9,0.2v3.8L70.8,30.7z M63.7,4.6
			V0.8h3.8v3.8H63.7z"/>
		<path class="st3" d="M38.4,31V9.6C38.4,4.8,42.3,1,47,1h7.6v3.8H47c-2.7,0-4.8,2.2-4.8,4.8v6.7h7.4v3.8h-7.5V31
			C42.1,31,38.4,31,38.4,31z"/>
		<g>
			<path class="st5" d="M25.8,26.1H10.3c-2.8,0-5-2.2-5-5v-5.9c0-2.8,2.3-5,5-5H16c2.8,0,5,2.3,5,5h4.8c0-5.4-4.4-9.8-9.9-9.8h-5.7
				c-5.4,0-9.8,4.4-9.8,9.8v5.9c0,5.4,4.4,9.9,9.8,9.9h15.5L25.8,26.1L25.8,26.1z"/>
			<path class="st5" d="M34.1,28.5c0,1.7-1.4,3.1-3.1,3.1c-1.7,0-3.1-1.4-3.1-3.1c0-1.7,1.4-3.1,3.1-3.1
				C32.7,25.4,34.1,26.8,34.1,28.5z"/>
		</g>
	</g>
</g>
</svg>
