<?xml version="1.0" encoding="utf-8"?>
<!-- Generator: Adobe Illustrator 19.0.0, SVG Export Plug-In . SVG Version: 6.00 Build 0)  -->
<!DOCTYPE svg PUBLIC "-//W3C//DTD SVG 1.0//EN" "http://www.w3.org/TR/2001/REC-SVG-20010904/DTD/svg10.dtd">
<svg version="1.0" id="Layer_1" xmlns="http://www.w3.org/2000/svg" xmlns:xlink="http://www.w3.org/1999/xlink" x="0px" y="0px"
	 viewBox="-576.7 409.7 20.9 18.4" enable-background="new -576.7 409.7 20.9 18.4" xml:space="preserve">
<path id="XMLID_117_" fill="#E62614" d="M-556,426.6l-9.4-16.3c-0.5-0.8-1.2-0.8-1.7,0l-9.4,16.3c-0.5,0.8-0.1,1.5,0.9,1.5h18.8
	C-555.9,428.1-555.5,427.5-556,426.6z M-566.3,414.1c0.7,0,1.2,0.5,1.2,1.2l-0.2,6.4c0,0.5-0.4,1-1,1c-0.5,0-1-0.4-1-1l-0.2-6.4
	C-567.5,414.7-566.9,414.1-566.3,414.1z M-566.3,426.6c-0.7,0-1.3-0.6-1.3-1.3c0-0.7,0.6-1.3,1.3-1.3c0.7,0,1.3,0.6,1.3,1.3
	C-565,426-565.6,426.6-566.3,426.6z"/>
</svg>
