<?xml version="1.0" encoding="utf-8"?>
<!-- Generator: Adobe Illustrator 19.0.0, SVG Export Plug-In . SVG Version: 6.00 Build 0)  -->
<!DOCTYPE svg PUBLIC "-//W3C//DTD SVG 1.0//EN" "http://www.w3.org/TR/2001/REC-SVG-20010904/DTD/svg10.dtd">
<svg version="1.0" id="Layer_1" xmlns="http://www.w3.org/2000/svg" xmlns:xlink="http://www.w3.org/1999/xlink" x="0px" y="0px"
	 viewBox="-590 412.8 15.2 16.2" enable-background="new -590 412.8 15.2 16.2" xml:space="preserve">
<path id="XMLID_645_" fill="#FFFFFF" d="M-581.2,412.8c0.4,0,0.8,0.3,0.8,0.8v8.3c0,0.4,0.2,0.5,0.5,0.2l2.5-2.5
	c0.3-0.3,0.8-0.3,1.1,0l1.3,1.3c0.3,0.3,0.3,0.8,0,1.1l-6.9,6.9c-0.3,0.3-0.8,0.3-1.1,0l-6.9-6.9c-0.3-0.3-0.3-0.8,0-1.1l1.3-1.3
	c0.3-0.3,0.8-0.3,1.1,0l2.5,2.5c0.3,0.3,0.5,0.2,0.5-0.2v-8.3c0-0.4,0.3-0.8,0.8-0.8H-581.2z"/>
</svg>
