<?xml version="1.0" encoding="utf-8"?>
<!-- Generator: Adobe Illustrator 19.0.0, SVG Export Plug-In . SVG Version: 6.00 Build 0)  -->
<!DOCTYPE svg PUBLIC "-//W3C//DTD SVG 1.0//EN" "http://www.w3.org/TR/2001/REC-SVG-20010904/DTD/svg10.dtd">
<svg version="1.0" id="Layer_1" xmlns="http://www.w3.org/2000/svg" xmlns:xlink="http://www.w3.org/1999/xlink" x="0px" y="0px"
	 viewBox="-577.9 412.3 18 17.7" enable-background="new -577.9 412.3 18 17.7" xml:space="preserve">
<path id="XMLID_1_" fill="#FFFFFF" d="M-559.9,413.1c0-0.4-0.4-0.8-0.8-0.8h-1.9c-0.4,0-0.8,0.4-0.8,0.8v3.5v4
	c0,0.4-0.3,0.7-0.7,0.7l-7.3,0c-0.4,0-0.5-0.2-0.2-0.5l2.3-2.3c0.3-0.3,0.3-0.7,0-1l-1.2-1.2c-0.3-0.3-0.7-0.3-1,0l-6.2,6.2
	c-0.3,0.3-0.3,0.7,0,1l6.2,6.2c0.3,0.3,0.7,0.3,1,0l1.2-1.2c0.3-0.3,0.3-0.7,0-1l-2.3-2.3c-0.3-0.3-0.2-0.5,0.2-0.5h10.8
	c0.4,0,0.7-0.3,0.7-0.7L-559.9,413.1z"/>
</svg>
