<?xml version="1.0" encoding="utf-8"?>
<!-- Generator: Adobe Illustrator 19.0.0, SVG Export Plug-In . SVG Version: 6.00 Build 0)  -->
<!DOCTYPE svg PUBLIC "-//W3C//DTD SVG 1.0//EN" "http://www.w3.org/TR/2001/REC-SVG-20010904/DTD/svg10.dtd">
<svg version="1.0" id="Layer_1" xmlns="http://www.w3.org/2000/svg" xmlns:xlink="http://www.w3.org/1999/xlink" x="0px" y="0px"
	 viewBox="-576 385.5 18.3 21.6" enable-background="new -576 385.5 18.3 21.6" xml:space="preserve">
<path id="XMLID_121_" fill="#FFFFFF" d="M-565.9,390.7h-3.7c-0.4,0-0.5-0.2-0.2-0.5l2.3-2.3c0.3-0.3,0.3-0.7,0-1l-1.2-1.2
	c-0.3-0.3-0.7-0.3-1,0l-6.2,6.2c-0.3,0.3-0.3,0.7,0,1l6.2,6.2c0.3,0.3,0.7,0.3,1,0l1.2-1.2c0.3-0.3,0.3-0.7,0-1l-2.3-2.3
	c-0.2-0.2-0.2-0.4,0-0.5h3.8c2.6,0,4.7,2.1,4.7,4.7c0,2.6-2.1,4.7-4.7,4.7h-3.5c-0.4,0-0.8,0.4-0.8,0.8v1.9c0,0.4,0.4,0.8,0.8,0.8
	h2.2v0h1.3c4.5,0,8.2-3.7,8.2-8.2C-557.6,394.3-561.3,390.7-565.9,390.7z"/>
</svg>
