<?xml version="1.0" encoding="utf-8"?>
<!-- Generator: Adobe Illustrator 19.0.0, SVG Export Plug-In . SVG Version: 6.00 Build 0)  -->
<!DOCTYPE svg PUBLIC "-//W3C//DTD SVG 1.0//EN" "http://www.w3.org/TR/2001/REC-SVG-20010904/DTD/svg10.dtd">
<svg version="1.0" id="Layer_1" xmlns="http://www.w3.org/2000/svg" xmlns:xlink="http://www.w3.org/1999/xlink" x="0px" y="0px"
	 viewBox="-581.7 409 21.3 21.3" enable-background="new -581.7 409 21.3 21.3" xml:space="preserve">
<g id="XMLID_2_">
	<path id="XMLID_10_" fill="#FFFFFF" d="M-581.7,419.6c0,5.9,4.8,10.6,10.6,10.6l0,0c5.9,0,10.6-4.8,10.6-10.6l0,0
		c0-5.9-4.8-10.6-10.6-10.6l0,0C-577,409-581.7,413.7-581.7,419.6L-581.7,419.6z M-578.3,419.6c0-4,3.2-7.2,7.2-7.2l0,0
		c4,0,7.2,3.2,7.2,7.2l0,0c0,4-3.2,7.2-7.2,7.2l0,0C-575.1,426.8-578.3,423.6-578.3,419.6L-578.3,419.6z"/>
	<g id="XMLID_7_">
		<g id="XMLID_8_">
			<circle id="XMLID_9_" fill="#FFFFFF" cx="-571.1" cy="419.6" r="3.6"/>
		</g>
	</g>
</g>
</svg>
