<?xml version="1.0" encoding="utf-8"?>
<!-- Generator: Adobe Illustrator 19.0.0, SVG Export Plug-In . SVG Version: 6.00 Build 0)  -->
<!DOCTYPE svg PUBLIC "-//W3C//DTD SVG 1.0//EN" "http://www.w3.org/TR/2001/REC-SVG-20010904/DTD/svg10.dtd">
<svg version="1.0" id="Layer_1" xmlns="http://www.w3.org/2000/svg" xmlns:xlink="http://www.w3.org/1999/xlink" x="0px" y="0px"
	 viewBox="-580.7 408.4 21.3 21.3" enable-background="new -580.7 408.4 21.3 21.3" xml:space="preserve">
<g id="XMLID_122_">
	<path id="XMLID_126_" fill="#FFDC00" d="M-580.7,419c0,5.9,4.8,10.6,10.6,10.6l0,0c5.9,0,10.6-4.8,10.6-10.6l0,0
		c0-5.9-4.8-10.6-10.6-10.6l0,0C-575.9,408.4-580.7,413.1-580.7,419L-580.7,419z M-577.2,419c0-4,3.2-7.2,7.2-7.2l0,0
		c4,0,7.2,3.2,7.2,7.2l0,0c0,4-3.2,7.2-7.2,7.2l0,0C-574,426.1-577.2,422.9-577.2,419L-577.2,419z"/>
	<g id="XMLID_123_">
		<g id="XMLID_124_">
			<circle id="XMLID_125_" fill="#FFDC00" cx="-570.1" cy="419" r="3.6"/>
		</g>
	</g>
</g>
</svg>
