<?xml version="1.0" encoding="UTF-8" standalone="no"?>
<!-- Created with Inkscape (http://www.inkscape.org/) -->

<svg
   xmlns:dc="http://purl.org/dc/elements/1.1/"
   xmlns:cc="http://creativecommons.org/ns#"
   xmlns:rdf="http://www.w3.org/1999/02/22-rdf-syntax-ns#"
   xmlns:svg="http://www.w3.org/2000/svg"
   xmlns="http://www.w3.org/2000/svg"
   version="1.1"
   width="100%"
   height="100%"
   viewBox="-356 382.9 129 38.375"
   id="Layer_1"
   xml:space="preserve"><metadata
   id="metadata32"><rdf:RDF><cc:Work
       rdf:about=""><dc:format>image/svg+xml</dc:format><dc:type
         rdf:resource="http://purl.org/dc/dcmitype/StillImage" /><dc:title></dc:title></cc:Work></rdf:RDF></metadata><defs
   id="defs30" />

<rect
   width="64"
   height="37.400002"
   x="-355.48749"
   y="383.38748"
   id="XMLID_26_"
   style="stroke:#ffffff;stroke-miterlimit:10" />
<rect
   width="64"
   height="37.400002"
   x="-291.48749"
   y="383.38748"
   id="XMLID_24_"
   style="stroke:#ffffff;stroke-miterlimit:10" />
<g
   transform="translate(-175.1875,-5.9125)"
   id="XMLID_22_">
	<path
   d="m -74.7,414.5 c -5.4,0 -9.9,-4.4 -9.9,-9.9 0,-5.4 4.4,-9.9 9.9,-9.9 5.4,0 9.9,4.4 9.9,9.9 0,5.5 -4.4,9.9 -9.9,9.9 z"
   id="path11" />
	<path
   d="m -74.7,395 c 5.3,0 9.6,4.3 9.6,9.6 0,5.3 -4.3,9.6 -9.6,9.6 -5.3,0 -9.6,-4.3 -9.6,-9.6 0,-5.3 4.3,-9.6 9.6,-9.6 m 0,-0.5 c -5.6,0 -10.1,4.5 -10.1,10.1 0,5.6 4.5,10.1 10.1,10.1 5.6,0 10.1,-4.5 10.1,-10.1 0,-5.6 -4.5,-10.1 -10.1,-10.1 l 0,0 z"
   id="path13"
   style="fill:#ffffff" />
</g>
<path
   d="m -241.0875,398.6875 c 0,-4.9 -4,-8.8 -8.8,-8.8 v 8.8 h 8.8 z"
   id="XMLID_21_"
   style="fill:#ffffff" />
<g
   transform="translate(-175.1875,-5.9125)"
   id="XMLID_12_">
	<path
   d="m -158.6,397.5 c 1.7,-0.5 3.4,1.5 3.4,1.5 0,-0.1 0,-0.3 -0.1,-0.4 -0.4,-1.6 -1.7,-2.8 -3.3,-2.9 -2.1,-0.1 -3.7,1.2 -4,3.2 -0.3,1.9 1,3.7 2.8,4.1 0.2,0 0.4,0.1 0.6,0.1 0,0 -0.7,-2.9 -0.8,-3.6 -0.1,-0.5 0.2,-1.8 1.4,-2 z"
   id="XMLID_20_"
   style="fill:#ffffff" />
	<path
   d="m -154.3,398.4 v -0.9 c -0.2,-1.9 0.3,-2.9 1.4,-3.4 1.1,-0.4 1.8,-0.3 2.9,1.6 0.6,1 0.9,1.6 0.9,1.6 0.1,-0.1 0.1,-0.2 0.2,-0.3 0.3,-0.6 0.5,-1.3 0.4,-2.1 -0.2,-1.8 -1.6,-3.2 -3.4,-3.3 -1.9,-0.1 -3.5,1 -3.9,2.7 -0.4,1.6 0.2,3.2 1.5,4.1 z"
   id="XMLID_19_"
   style="fill:#ffffff" />
	<path
   d="m -145.6,409.2 c 0,-0.1 0,-0.1 -0.1,-0.2 l 0,0 c 0,0.1 0,0.2 0.1,0.2 z"
   id="XMLID_18_"
   style="fill:#ffffff" />
	<path
   d="m -130.1,425.6 -0.4,-0.4 c -1.5,-1.4 -2.7,-3.1 -3.9,-5.5 -0.8,-1.6 -1.5,-3.2 -2.1,-4.8 -0.3,-0.7 -0.6,-1.5 -1,-2.2 l -0.2,-0.4 c -0.4,-0.8 -0.7,-1.7 -1.1,-2.5 -0.2,-0.5 -0.6,-0.5 -0.7,-0.5 -0.1,0 -0.2,0 -0.3,0 -0.3,0.1 -0.6,0.1 -0.9,0.1 -0.6,0 -1.2,-0.2 -1.8,-0.5 -0.2,-0.1 -0.3,-0.1 -0.3,-0.1 -0.2,0 -0.5,0.1 -0.7,0.3 -0.3,0.2 -0.6,0.5 -0.9,0.7 -0.1,0.1 -0.3,0.2 -0.4,0.3 l -1.6,1.3 -0.7,-2 c 0,-0.1 -0.1,-0.2 -0.1,-0.3 -1.3,-4 -2.5,-7.5 -4.1,-10.9 l 0,0 c 0.7,2.3 1.4,4.6 2.2,6.8 l 0.9,2.9 0.4,1.2 -2.8,1.5 -0.8,-1.2 c -0.1,-0.1 -0.2,-0.2 -0.2,-0.3 l -1.5,-2.3 c -1.3,-2.1 -2.6,-4.1 -4,-6.2 0,0.1 0.1,0.1 0.1,0.2 0.9,2.1 1.9,4.3 2.8,6.4 0.5,1.1 0.9,2.1 1.4,3.2 0.8,1.9 1.7,3.7 2.5,5.6 v 0.1 c 0.1,0.3 0.5,0.9 0.2,1.7 -0.2,0.5 -0.6,0.8 -1.1,1 -0.1,0.1 -0.3,0.1 -0.4,0.1 0.1,0.1 0.2,0.3 0.4,0.4 0.2,0.3 0.4,0.5 0.6,0.7 0.8,1.2 1.5,2.1 2.3,3 l 2.4,2.5 h -5 l -0.4,-0.5 c -0.7,-0.8 -1.4,-1.6 -2.1,-2.6 -0.2,-0.3 -0.5,-0.7 -0.8,-1 -2.2,-2.7 -3,-5.7 -2.5,-9.1 0.1,-0.4 0.2,-0.7 0.4,-1 -1.4,-3 -4.1,-9 -4.2,-9.5 0,-0.2 -0.1,-0.3 -0.1,-0.5 -0.2,-0.6 -0.3,-1.2 -0.4,-1.9 -0.1,-0.9 0.2,-1.8 0.9,-2.4 0.6,-0.6 1.4,-1 2.3,-1 0.5,0 1,0.1 1.4,0.3 0.3,0.2 0.8,0.6 1.3,1.1 -0.1,-0.5 -0.2,-1 -0.2,-1.3 -0.1,-1.6 0.7,-2.8 2.2,-3.3 0.5,-0.2 0.9,-0.2 1.3,-0.2 1.1,0 1.8,0.7 2.3,1.3 0.2,0.3 0.4,0.6 0.7,0.9 0.2,0.4 1,1.8 1.2,2.2 v 0.1 c 1.3,2.8 2.3,5.7 3.2,8.3 0.6,-0.2 1.1,-0.4 1.7,-0.4 0.7,0 1.5,0.2 2.3,0.6 h 0.1 c 0.1,0 0.3,0 0.4,0 0.2,0 0.5,0 0.7,0 0.2,0 0.4,0 0.6,0 1.4,0.2 2.6,1.1 3.1,2.4 0.3,0.7 0.6,1.5 1,2.2 0.6,1.3 1.1,2.6 1.7,3.9 1,2.4 1.9,4.5 3.3,6.4 0.3,0.5 0.8,0.9 1.2,1.4 0.2,0.2 0.4,0.5 0.7,0.7 0.1,0.1 2.6,2.8 2.6,2.8 h -5.1 v 0.2 z"
   id="XMLID_17_" />
	<path
   d="m -149.4,424.2 c -0.9,-1 -1.7,-2 -2.5,-3.2 -0.1,-0.2 -0.3,-0.4 -0.5,-0.6 -1.8,-2 -2.6,-4.3 -2.3,-7 0,-0.2 0.1,-0.3 0.1,-0.6 0.3,0.4 0.5,0.8 0.7,1.1 0.5,1 1,2 1.5,3 0.1,0.3 0.2,0.7 0.6,0.6 0.5,-0.2 0.2,-0.6 0.1,-0.8 -0.8,-1.9 -1.6,-3.7 -2.5,-5.6 -1.4,-3.2 -2.9,-6.4 -4.3,-9.6 -0.2,-0.5 -0.4,-1.1 -0.5,-1.6 -0.1,-0.5 -0.1,-1 0.4,-1.3 0.5,-0.3 1.1,-0.2 1.5,0.2 0.4,0.3 0.7,0.7 1,1.1 1.9,2.9 3.7,5.7 5.5,8.6 0.1,0.1 0.2,0.3 0.3,0.4 0.2,-0.1 0.4,-0.2 0.6,-0.3 0,-0.2 -0.1,-0.3 -0.1,-0.4 -1,-3.1 -2,-6.2 -3,-9.4 -0.3,-0.8 -0.4,-1.7 -0.6,-2.6 -0.1,-0.6 0.1,-0.9 0.6,-1.1 0.7,-0.3 0.9,-0.3 1.3,0.3 0.5,0.6 0.9,1.3 1.3,2 1.8,3.6 3.1,7.5 4.4,11.4 0,0.1 0.1,0.1 0.1,0.2 0.5,-0.4 0.9,-0.8 1.4,-1.1 0.8,-0.6 1.7,-0.8 2.6,-0.2 0.5,0.3 1,0.4 1.6,0.2 1.1,-0.3 2.1,0.2 2.6,1.2 0.5,1 0.9,2 1.4,3 1,2.3 2,4.7 3.1,7 0.9,1.9 2,3.6 3.6,5.1 h 0.9 c -0.1,-0.1 -0.2,-0.3 -0.3,-0.4 -0.6,-0.7 -1.4,-1.4 -1.9,-2.2 -1.5,-2.1 -2.5,-4.4 -3.5,-6.7 -0.9,-2.1 -1.8,-4.1 -2.7,-6.1 -0.4,-0.9 -1.1,-1.3 -2,-1.5 -0.5,-0.1 -1,0 -1.6,0 -0.2,0 -0.4,0 -0.6,-0.1 -1.3,-0.8 -2.6,-0.7 -3.8,0.3 -0.1,0.1 -0.3,0.2 -0.4,0.3 0,-0.1 -0.1,-0.2 -0.1,-0.3 -1.1,-3.3 -2.2,-6.6 -3.7,-9.7 0,0 -0.9,-1.7 -1.1,-2.1 -0.2,-0.3 -0.4,-0.5 -0.6,-0.8 -0.6,-0.8 -1,-0.9 -1.9,-0.6 -0.9,0.3 -1.3,0.8 -1.2,1.8 0,0.5 0.6,2.7 0.6,2.9 0.5,1.5 0.9,3 1.4,4.4 0.2,0.8 0.5,1.5 0.7,2.3 -0.1,-0.1 -0.2,-0.2 -0.3,-0.4 -1.1,-1.8 -2.3,-3.5 -3.4,-5.3 -0.2,-0.3 -1.8,-2.2 -2.2,-2.4 -1.3,-0.6 -2.6,0.3 -2.5,1.7 0,0.7 0.3,1.4 0.5,2.1 0.1,0.3 3.3,7.5 4.6,10.4 -0.6,0 -0.7,0.1 -0.8,0.7 -0.5,3 0.3,5.6 2.2,7.9 0.3,0.4 0.6,0.7 0.9,1.1 0.6,0.9 1.3,1.7 1.9,2.4 h 0.9 v 0.3 z"
   id="XMLID_16_"
   style="fill:#ffffff" />
</g>
<g
   transform="translate(-175.1875,-5.9125)"
   id="XMLID_6_">
	<path
   d="m -102.5,397.5 c 1.7,-0.5 3.4,1.5 3.4,1.5 0,-0.1 0,-0.3 -0.1,-0.4 -0.4,-1.6 -1.7,-2.8 -3.3,-2.9 -2.1,-0.1 -3.7,1.2 -4,3.2 -0.3,1.9 1,3.7 2.8,4.1 0.2,0 0.4,0.1 0.6,0.1 0,0 -0.7,-2.9 -0.8,-3.6 0,-0.5 0.2,-1.8 1.4,-2 z"
   id="XMLID_11_"
   style="fill:#ffffff" />
	<path
   d="m -98.2,398.4 v -0.9 c -0.2,-1.9 0.3,-2.9 1.4,-3.4 1.1,-0.4 1.8,-0.3 2.9,1.6 0.6,1 0.9,1.6 0.9,1.6 0.1,-0.1 0.1,-0.2 0.2,-0.3 0.3,-0.6 0.5,-1.3 0.4,-2.1 -0.2,-1.8 -1.6,-3.2 -3.4,-3.3 -1.9,-0.1 -3.5,1 -3.9,2.7 -0.3,1.6 0.3,3.2 1.5,4.1 z"
   id="XMLID_10_"
   style="fill:#ffffff" />
	<path
   d="m -89.5,409.2 c 0,-0.1 0,-0.1 -0.1,-0.2 l 0,0 c 0,0.1 0.1,0.2 0.1,0.2 z"
   id="XMLID_9_"
   style="fill:#ffffff" />
	<path
   d="m -74,425.6 -0.4,-0.4 c -1.5,-1.4 -2.7,-3.1 -3.9,-5.5 -0.8,-1.6 -1.5,-1.1 -2.1,-2.7 -0.3,-0.7 -0.6,-1.5 -1,-2.2 l -0.2,-0.4 c -0.4,-0.8 -0.7,-1.7 -1.2,-2.5 -0.2,-0.5 -0.6,-0.5 -0.7,-0.5 -0.1,0 -0.2,0 -0.3,0 -0.3,0.1 -0.6,0.1 -0.9,0.1 -0.6,0 -1.2,-2.3 -1.8,-2.6 -0.2,-0.1 -0.3,-0.1 -0.3,-0.1 -0.2,0 -0.5,0.1 -0.7,0.3 -0.3,0.2 -0.6,0.5 -0.9,0.7 -0.1,0.1 -0.3,0.2 -0.4,0.3 l -1.6,1.3 -0.7,-2 c 0,-0.1 -0.1,-0.2 -0.1,-0.3 -1.3,-4 -2.5,-7.5 -4.1,-10.9 l 0,0 c 0.7,2.3 1.4,4.5 2.1,6.7 l 0.9,3 0.4,1.2 -2.8,1.5 -0.8,-1.2 c -0.1,-0.1 -0.2,-0.2 -0.2,-0.3 l -1.5,-2.3 c -1.3,-2.1 -2.6,-4.1 -4,-6.2 0,0.1 0.1,0.1 0.1,0.2 0.9,2.1 1.9,4.2 2.8,6.3 0.5,1.1 1,2.1 1.4,3.2 0.8,1.9 1.7,3.7 2.5,5.6 v 0.1 c 0.1,0.3 0.5,0.9 0.2,1.7 -0.2,0.5 -0.6,0.8 -1.1,1 -0.1,0.1 -0.3,0.1 -0.4,0.1 0.1,0.1 0.2,0.3 0.4,0.4 0.2,0.3 0.4,0.5 0.6,0.7 0.8,1.2 1.5,2.1 2.3,3 l 2.4,2.5 h -5 l -0.4,-0.5 c -0.7,-0.8 -1.4,-1.6 -2.1,-2.6 -0.2,-0.3 -0.5,-0.7 -0.8,-1 -2.2,-2.7 -3,-5.7 -2.5,-9.1 0.1,-0.4 0.2,-0.7 0.4,-1 -1.3,-2.9 -4.1,-9 -4.2,-9.5 0,-0.2 -0.1,-0.3 -0.1,-0.5 -0.2,-0.6 -0.3,-1.2 -0.4,-1.9 -0.1,-0.9 0.2,-1.8 0.9,-2.4 0.6,-0.6 1.4,-1 2.3,-1 0.5,0 1,0.1 1.4,0.3 0.3,0.2 0.8,0.6 1.3,1.1 -0.1,-0.5 -0.2,-1 -0.2,-1.3 -0.1,-1.6 0.7,-2.8 2.2,-3.3 0.5,-0.2 0.9,-0.2 1.3,-0.2 1.1,0 1.8,0.7 2.3,1.3 0.2,0.3 0.4,0.6 0.7,0.9 0.2,0.4 1,1.8 1.2,2.2 v 0.1 c 1.3,2.8 2.3,5.7 3.2,8.3 0.6,-0.2 1.1,-0.4 1.7,-0.4 0.7,0 1.5,0.2 2.3,0.6 h 0.1 c 0.1,0 0.3,0 0.4,0 0.2,0 0.5,0 0.7,0 0.2,0 0.4,0 0.6,0 1.4,0.2 2.6,1.1 3.1,2.4 0.3,0.7 0.6,1.5 1,2.2 0.6,1.3 1.1,2.6 1.7,3.9 1,2.4 1.9,4.5 3.3,6.4 0.3,0.5 0.7,0.9 1.2,1.4 0.2,0.2 0.4,0.5 0.7,0.7 0.1,0.1 2.6,2.8 2.6,2.8 H -74 v 0.3 z"
   id="XMLID_8_" />
	<path
   d="m -93.3,424.2 c -0.9,-1 -1.7,-2 -2.5,-3.2 -0.1,-0.2 -0.3,-0.4 -0.5,-0.6 -1.8,-2 -2.6,-4.3 -2.3,-7 0,-0.2 0.1,-0.3 0.1,-0.6 0.3,0.4 0.5,0.8 0.7,1.1 0.5,1 1,2 1.5,3 0.1,0.3 0.2,0.7 0.6,0.6 0.5,-0.2 0.2,-0.6 0.1,-0.8 -0.8,-1.9 -1.6,-3.7 -2.5,-5.6 -1.4,-3.2 -2.9,-6.4 -4.3,-9.6 -0.2,-0.5 -0.4,-1.1 -0.5,-1.6 -0.1,-0.5 -0.1,-1 0.4,-1.3 0.5,-0.3 1.1,-0.2 1.5,0.2 0.4,0.3 0.7,0.7 1,1.1 1.9,2.9 3.7,5.7 5.5,8.6 0.1,0.1 0.2,0.3 0.3,0.4 0.2,-0.1 0.4,-0.2 0.6,-0.3 0,-0.2 -0.1,-0.3 -0.1,-0.4 -1,-3.1 -2,-6.2 -3,-9.4 -0.3,-0.8 -0.4,-1.7 -0.6,-2.6 -0.1,-0.6 0.1,-0.9 0.6,-1.1 0.7,-0.3 0.9,-0.3 1.3,0.3 0.5,0.6 0.9,1.3 1.3,2 1.8,3.6 3.1,7.5 4.4,11.4 0,0.1 0.1,0.1 0.1,0.2 0.5,-0.4 0.9,-0.8 1.4,-1.1 0.8,-0.6 1.7,-0.8 2.6,-0.2 0.5,0.3 1,0.4 1.6,0.2 1.1,-0.3 2.1,0.2 2.6,1.2 0.5,1 0.9,2 1.4,3 1,2.3 2,4.7 3.1,7 0.9,1.9 2,3.6 3.6,5.1 h 0.9 c -0.1,-0.1 -0.2,-0.3 -0.3,-0.4 -0.6,-0.7 -1.4,-1.4 -1.9,-2.2 -1.5,-2.1 -2.5,-4.4 -3.5,-6.7 -0.9,-2.1 -1.8,-4.1 -2.7,-6.1 -0.4,-0.9 -1.1,-1.3 -2,-1.5 -0.5,-0.1 -1,0 -1.6,0 -0.2,0 -0.4,0 -0.6,-0.1 -1.3,-0.8 -2.6,-0.7 -3.8,0.3 -0.1,0.1 -0.3,0.2 -0.4,0.3 0,-0.1 -0.1,-0.2 -0.1,-0.3 -1.1,-3.3 -2.2,-6.6 -3.7,-9.7 0,0 -0.9,-1.7 -1.1,-2.1 -0.2,-0.3 -0.4,-0.5 -0.6,-0.8 -0.6,-0.8 -1,-0.9 -1.9,-0.6 -0.9,0.3 -1.3,0.8 -1.2,1.8 0,0.5 0.6,2.7 0.6,2.9 0.5,1.5 0.9,3 1.4,4.4 0.2,0.8 0.5,1.5 0.7,2.3 -0.1,-0.1 -0.2,-0.2 -0.3,-0.4 -1.1,-1.8 -2.3,-3.5 -3.4,-5.3 -0.2,-0.3 -1.8,-2.2 -2.2,-2.4 -1.3,-0.6 -2.6,0.3 -2.5,1.7 0,0.7 0.3,1.4 0.5,2.1 0.1,0.3 3.3,7.5 4.6,10.4 -0.6,0 -0.7,0.1 -0.8,0.7 -0.5,3 0.3,5.6 2.2,7.9 0.3,0.4 0.6,0.7 0.9,1.1 0.6,0.9 1.3,1.7 1.9,2.4 h 0.9 v 0.3 z"
   id="XMLID_7_"
   style="fill:#ffffff" />
</g>
</svg>