<?xml version="1.0" encoding="utf-8"?>
<!-- Generator: Adobe Illustrator 19.0.0, SVG Export Plug-In . SVG Version: 6.00 Build 0)  -->
<!DOCTYPE svg PUBLIC "-//W3C//DTD SVG 1.0//EN" "http://www.w3.org/TR/2001/REC-SVG-20010904/DTD/svg10.dtd">
<svg version="1.0" id="Layer_1" xmlns="http://www.w3.org/2000/svg" xmlns:xlink="http://www.w3.org/1999/xlink" x="0px" y="0px"
	 viewBox="-587 411.9 17 18" enable-background="new -587 411.9 17 18" xml:space="preserve">
<g>
	<path fill="#FFFFFF" d="M-579.7,429.7c-0.5,0-0.8-0.4-0.8-0.8v-9c0-0.5-0.3-0.6-0.6-0.2l-2.7,2.7c-0.3,0.3-0.9,0.3-1.2,0l-1.5-1.5
		c-0.3-0.3-0.3-0.8,0-1.2l7.5-7.3c0.3-0.3,0.8-0.3,1.2,0l7.4,7.4c0.3,0.3,0.3,0.8,0,1.2l-1.4,1.4c-0.3,0.3-0.9,0.3-1.2,0l-2.8-2.7
		c-0.3-0.3-0.6-0.2-0.6,0.2v9c0,0.5-0.4,0.8-0.8,0.8H-579.7z"/>
	<path fill="#FFFFFF" d="M-577.2,429.9h-2.5c-0.6,0-1-0.5-1-1v-9c0-0.1,0-0.2,0-0.2s-0.1,0-0.2,0.1l-2.7,2.7c-0.4,0.4-1.1,0.4-1.5,0
		l-1.5-1.4c-0.4-0.4-0.4-1.1,0-1.5l7.4-7.4c0.2-0.2,0.5-0.3,0.7-0.3l0,0c0.3,0,0.5,0.1,0.7,0.3l7.4,7.4c0.4,0.4,0.4,1.1,0,1.5
		l-1.4,1.4c-0.4,0.4-1.1,0.4-1.5,0l-2.8-2.7c-0.1-0.1-0.2-0.1-0.2-0.1s0,0.1,0,0.2v9C-576.1,429.4-576.6,429.9-577.2,429.9z
		 M-580.8,419.2c0.1,0,0.1,0,0.2,0c0.1,0,0.3,0.2,0.3,0.6v9c0,0.3,0.3,0.6,0.6,0.6h2.6c0.3,0,0.6-0.3,0.6-0.6v-9
		c0-0.4,0.2-0.6,0.3-0.6c0.1,0,0.3-0.1,0.6,0.2l2.8,2.7c0.2,0.2,0.6,0.2,0.9,0l1.4-1.4c0.2-0.2,0.2-0.6,0-0.9l-7.5-7.3
		c-0.1-0.1-0.3-0.2-0.5-0.2l0,0c-0.2,0-0.3,0.1-0.4,0.2l-7.4,7.4c-0.2,0.2-0.2,0.6,0,0.9l1.4,1.4c0.2,0.2,0.6,0.2,0.9,0l2.7-2.7
		C-581.1,419.2-580.9,419.2-580.8,419.2z"/>
</g>
</svg>
